<?xml version="1.0" encoding="utf-8"?>
<!-- Generator: Adobe Illustrator 24.1.2, SVG Export Plug-In . SVG Version: 6.00 Build 0)  -->
<svg version="1.1" id="Layer_1" xmlns="http://www.w3.org/2000/svg" xmlns:xlink="http://www.w3.org/1999/xlink" x="0px" y="0px"
	 viewBox="0 0 408.8 294.1" style="enable-background:new 0 0 408.8 294.1;" xml:space="preserve">
<g>
	<path d="M408.8,36.8c-2,10.1-8.3,17.4-15.4,24.5C319.6,135,245.8,208.8,172.1,282.6c-10,10-21.5,14.3-35.1,9.5
		c-5-1.7-9.9-4.9-13.6-8.6C85.6,246.1,48.1,208.6,10.6,171c-15.1-15.2-13.9-37,2.6-49.9c12.8-10,30.9-8.2,43.7,4.6
		c28.9,28.9,57.8,57.8,86.6,86.7c1.1,1.1,1.8,2.6,3.4,4.9c1.7-2.3,2.4-3.6,3.4-4.6c67.1-67.1,134.2-134.2,201.2-201.3
		c9.7-9.7,21-13.8,34.5-9.6c11.8,3.7,18.8,12,21.9,23.8c0.2,0.9,0.5,1.7,0.8,2.6C408.8,31,408.8,33.9,408.8,36.8z"/>
</g>
</svg>
