<?xml version="1.0" encoding="utf-8"?>
<!-- Generator: Adobe Illustrator 24.1.2, SVG Export Plug-In . SVG Version: 6.00 Build 0)  -->
<svg version="1.1" id="Layer_1" xmlns="http://www.w3.org/2000/svg" xmlns:xlink="http://www.w3.org/1999/xlink" x="0px" y="0px"
	 viewBox="0 0 383.3 383.3" style="enable-background:new 0 0 383.3 383.3;" xml:space="preserve">
<g>
	<path d="M20.3,383.3c-1.4-0.5-2.8-0.9-4.2-1.4c-10.8-3.8-17.5-15-15.8-25.9c1.9-11.6,11.3-20.1,22.8-20.5c1.5-0.1,3,0,4.5,0
		c108.8,0,217.7,0,326.5,0c17.3,0,23.1,4,29.2,20.2c0,2.5,0,5,0,7.5c-0.8,2.3-1.5,4.7-2.5,6.9c-3.6,7.4-9.9,11.3-17.7,13.3
		C248.8,383.3,134.5,383.3,20.3,383.3z"/>
	<path d="M216.8,208.4c0.8-1.1,1.5-2.4,2.4-3.3c13.4-13.4,26.8-26.9,40.2-40.2c6.7-6.6,14.8-8.7,23.8-6.2
		c8.9,2.5,14.6,8.6,16.6,17.6c2,9-0.7,16.7-7.2,23.2c-22.5,22.5-45,45-67.5,67.5c-5.2,5.2-10.4,10.4-15.6,15.6
		c-10.7,10.6-24.9,10.7-35.6,0.1c-27.8-27.7-55.6-55.6-83.4-83.4c-6.8-6.8-9.3-15-6.7-24.3c2.5-8.9,8.6-14.6,17.6-16.6
		c8.8-2,16.5,0.5,22.9,6.9c13.2,13.2,26.5,26.5,39.7,39.7c1,1,1.7,2.1,2.6,3.2c0.4-0.1,0.7-0.3,1.1-0.4c0-1.4,0-2.8,0-4.2
		c0-59.5,0-119,0-178.5c0-14.6,10.6-25.3,24.5-25.1c12.5,0.2,22.8,10.3,23.4,22.8c0.1,3,0.1,6,0.1,9c0,57.3,0,114.5,0,171.8
		c0,1.3,0,2.7,0,4C216,207.9,216.4,208.1,216.8,208.4z"/>
</g>
</svg>
