<?xml version="1.0" encoding="utf-8"?>
<!-- Generator: Adobe Illustrator 24.1.2, SVG Export Plug-In . SVG Version: 6.00 Build 0)  -->
<svg version="1.1" id="Layer_1" xmlns="http://www.w3.org/2000/svg" xmlns:xlink="http://www.w3.org/1999/xlink" x="0px" y="0px"
	 viewBox="0 0 287.7 223.4" style="enable-background:new 0 0 287.7 223.4;" xml:space="preserve">
<g>
	<path d="M55,127.6c2,0,3,0,4,0c49.3,0,98.5,0,147.8,0c23.2,0,42.1-14.5,47.4-36.4c1-4.3,1.3-8.9,1.4-13.3c0.1-20.2,0-40.4,0.1-60.6
		c0-10.4,6.9-17.4,16.6-17.2c8.1,0.2,15.2,6.5,15.3,14.5c0.1,25.1,0.9,50.2-0.8,75.2c-2.3,33.5-30.5,62.6-63.7,68.4
		c-5.6,1-11.4,1.5-17.1,1.5c-48.6,0.1-97.3,0.1-145.9,0.1c-1.4,0-2.7,0-5,0c1.4,1.4,2.2,2.4,3.1,3.3c11,11,22.1,22,33,33.1
		c8.9,9.1,5.2,23.6-6.7,26.9c-6.3,1.7-11.7-0.2-16.3-4.8c-19-19.1-38.1-38.1-57.1-57.2c-2-2-4.1-4-6.1-6c-6.1-6.3-6.3-16-0.1-22.2
		c21.3-21.4,42.7-42.7,64.1-64c6.6-6.5,16.2-6.4,22.5-0.3c6.4,6.3,6.6,16.1,0,22.8c-10.8,11.1-21.8,21.9-32.8,32.9
		C57.5,124.9,56.6,125.9,55,127.6z"/>
</g>
</svg>
