<?xml version="1.0" encoding="utf-8"?>
<!-- Generator: Adobe Illustrator 24.1.2, SVG Export Plug-In . SVG Version: 6.00 Build 0)  -->
<svg version="1.1" id="Layer_1" xmlns="http://www.w3.org/2000/svg" xmlns:xlink="http://www.w3.org/1999/xlink" x="0px" y="0px"
	 viewBox="0 0 359.4 263.6" style="enable-background:new 0 0 359.4 263.6;" xml:space="preserve">
<g>
	<path d="M179.9,0.1c51.5,0,103,0,154.6,0c14.5,0,25.2,10.7,24.9,24.6c-0.3,12.3-10.2,22.6-22.5,23.2c-1,0.1-2,0-3,0
		C231,48,128.3,48,25.5,48C12.8,48,3.2,40.7,0.6,29.5C-2.8,14.5,8.1,0.4,23.4,0.1c10.4-0.2,20.7,0,31.1,0C96.3,0,138.1,0,179.9,0.1z
		"/>
	<path d="M179.4,155.8c-35.7,0-71.3,0.1-107,0c-17.3,0-28.9-16.4-23-32.3c3.5-9.5,12.3-15.6,22.9-15.6c27.2,0,54.4,0,81.6,0
		c44.3,0,88.6,0,132.8,0c13.6,0,24.2,10,24.7,23c0.5,13.8-10.2,24.9-24.2,24.9c-25.9,0.1-51.9,0-77.8,0
		C199.4,155.8,189.4,155.8,179.4,155.8z"/>
	<path d="M179.5,263.6c-23.9,0-47.9,0.1-71.8-0.1c-10-0.1-17.4-4.9-21.6-14c-4.1-9-2.8-17.6,3.4-25.2c4.5-5.5,10.5-8.5,17.6-8.5
		c48.4-0.1,96.8-0.1,145.2,0c13,0,23.3,11,23.3,24c0,13.1-10.5,23.8-23.8,23.9C227.6,263.7,203.6,263.6,179.5,263.6z"/>
</g>
</svg>
