<?xml version="1.0" encoding="utf-8"?>
<!-- Generator: Adobe Illustrator 24.1.2, SVG Export Plug-In . SVG Version: 6.00 Build 0)  -->
<svg version="1.1" id="Layer_1" xmlns="http://www.w3.org/2000/svg" xmlns:xlink="http://www.w3.org/1999/xlink" x="0px" y="0px"
	 viewBox="0 0 263.5 263.6" style="enable-background:new 0 0 263.5 263.6;" xml:space="preserve">
<g>
	<path d="M139.5,263.6c-5.1,0-10.3,0-15.4,0c-0.7-0.1-1.3-0.4-2-0.4c-20.6-1.5-39.9-7.4-57.5-18.1c-34.1-20.9-55.2-51.1-62.5-90.5
		c-0.9-4.9-1.4-10-2.1-14.9c0-5.1,0-10.3,0-15.4c0.2-0.9,0.3-1.8,0.5-2.7c0.8-5.7,1.3-11.4,2.5-17c6.9-31.6,23.1-57.6,48.9-77.1
		C84,3,120.1-5.1,159.5,3.1c31.5,6.6,57.1,23.1,76.7,48.6c21.2,27.5,30,58.8,26.7,93.3c-2.7,27.9-13.5,52.6-32.1,73.7
		c-20.4,23.1-45.8,37.5-76.2,42.9C149.5,262.4,144.5,262.9,139.5,263.6z M131.8,239.6c59.3,0,107.6-48.2,107.8-107.6
		C239.8,72.8,191.1,24,131.8,24C72.5,24,24.2,72.2,24,131.7C23.7,190.8,72.4,239.6,131.8,239.6z"/>
	<path d="M119.9,159.6c0-12.1-0.1-24.2,0-36.3c0-4.9,2.7-8.5,7.1-10.4c4.6-2,8.9-1.2,12.7,2c2.9,2.5,4,5.8,4,9.6
		c0,9.6,0,19.2,0,28.8c0,13.9,0,27.8,0,41.7c0,7.2-4.8,12.4-11.5,12.6c-7,0.2-12.3-4.9-12.3-12.3
		C119.8,183.4,119.9,171.5,119.9,159.6C119.9,159.6,119.9,159.6,119.9,159.6z"/>
	<path d="M131.8,56c8.8,0,16,7.3,15.9,16c-0.1,8.7-7.3,15.8-16,15.8c-8.8,0-16-7.4-15.9-16.1C115.9,63.1,123.1,56,131.8,56z"/>
</g>
</svg>
