<?xml version="1.0" encoding="utf-8"?>
<!-- Generator: Adobe Illustrator 24.1.2, SVG Export Plug-In . SVG Version: 6.00 Build 0)  -->
<svg version="1.1" id="Layer_1" xmlns="http://www.w3.org/2000/svg" xmlns:xlink="http://www.w3.org/1999/xlink" x="0px" y="0px"
	 viewBox="0 0 409 346.2" style="enable-background:new 0 0 409 346.2;" xml:space="preserve">
<g>
	<path d="M409,126.1c-1.6,8.9-2.7,17.8-4.8,26.6c-4.3,18.3-12.8,34.9-23.3,50.4c-20.3,30.1-46.6,54.5-74.7,77
		c-29.3,23.4-60.5,43.8-92.4,63.3c-6.1,3.7-12.3,3.8-18.4,0c-42.2-25.7-83.2-53.2-119.7-86.6C54,237,34.3,215.4,19.9,189.5
		C-0.6,152.7-6.6,114.1,8.1,74C21.8,36.8,47.6,11.6,86.8,2.9c35.3-7.9,67.4,0.3,94.4,24.9c8.7,7.9,15.9,17.4,24,26.4
		c1.6-2.2,3.6-5,5.7-7.8c9.5-12.7,20.7-23.5,34.4-31.6c18.6-11,38.7-15.6,60.3-14.3c23,1.4,43.5,9.3,61.2,24.1
		c20.6,17.2,33.1,39.2,38.9,65.2c1.4,6.4,2.2,13,3.3,19.6C409,114.9,409,120.5,409,126.1z M376.8,123.9c1-28.3-8.5-53-25.6-70.5
		c-24.9-25.3-67.6-28.4-95.8-7.1c-16.9,12.8-27.8,29.8-35.4,49.2c-3,7.6-8.8,12.1-15.7,12c-6.9-0.1-12.4-4.5-15.3-12
		c-5.5-14.3-13.2-27.2-23.5-38.6c-20.9-23.3-54.2-31.3-83.1-19.5C56.9,47.9,42.1,67.7,35.3,93.9c-7.7,29.8-0.9,57.4,14.4,83.3
		c13.8,23.4,32.4,42.7,52.6,60.7c30.8,27.4,64.9,50.4,99.7,72.2c1.8,1.2,3.1,1.2,5,0c27.5-17.2,54.5-35.2,79.9-55.5
		c24.2-19.4,46.9-40.2,64.9-65.6C366.3,168.4,376.3,146.1,376.8,123.9z"/>
</g>
</svg>
