<?xml version="1.0" encoding="utf-8"?>
<!-- Generator: Adobe Illustrator 24.1.2, SVG Export Plug-In . SVG Version: 6.00 Build 0)  -->
<svg version="1.1" id="Layer_1" xmlns="http://www.w3.org/2000/svg" xmlns:xlink="http://www.w3.org/1999/xlink" x="0px" y="0px"
	 viewBox="0 0 319.3 319.9" style="enable-background:new 0 0 319.3 319.9;" xml:space="preserve">
<g>
	<path d="M260.2,41.1c8.7,0.4,13.7,3.4,16.4,9.3c2.8,6.1,2.2,12.2-2.4,17.1C262.6,79.9,250.7,92,238.7,104
		c-6.2,6.1-16.6,5.5-22.6-0.7c-6-6.1-6.3-15.6-0.2-22c11.7-12.1,23.6-24.1,35.7-35.7C254.2,43,258.4,42,260.2,41.1z"/>
	<path d="M42.1,261.7c0-4.5,1.7-8.3,4.8-11.4C58,239.2,69.1,228,80.3,216.9c6.7-6.7,16.5-6.7,22.8-0.3c6.3,6.3,6.3,16.1-0.3,22.8
		c-11,11.2-22.2,22.3-33.3,33.4c-5.1,5.1-11.7,6.2-17.9,3.4C45.7,273.7,42.1,268.1,42.1,261.7z"/>
	<path d="M42.7,61c0.5-8.5,3.3-13.7,9.5-16.5c6.1-2.8,12.2-2.2,17,2.5c11.7,11.3,23.1,22.8,34.3,34.5c6.2,6.5,5.6,16.2-0.7,22.2
		c-6.2,5.9-15.5,6.1-21.9-0.1c-11.4-11.2-22.8-22.4-33.8-34C44.7,66.9,43.7,62.9,42.7,61z"/>
	<path d="M143.7,39.8c0-7.7-0.1-15.5,0-23.2c0.1-9.8,6.8-16.6,16-16.5c9.1,0.1,15.7,6.8,15.7,16.4c0.1,15.6,0.1,31.2,0,46.9
		c-0.1,9.8-6.8,16.6-16,16.5c-9-0.1-15.6-6.9-15.7-16.4C143.7,55.5,143.7,47.6,143.7,39.8z"/>
	<path d="M39.8,175.9c-7.7,0-15.5,0.1-23.2,0c-9.8-0.1-16.6-6.8-16.6-16c0-9.2,6.9-15.8,16.7-15.8c15.5-0.1,30.9-0.1,46.4,0
		c9.8,0.1,16.6,6.7,16.6,16c0,9.2-6.9,15.8-16.7,15.8C55.2,175.9,47.5,175.9,39.8,175.9z"/>
	<path d="M279.6,175.8c-8.2,0-16.5,0.1-24.7,0c-7.8-0.2-14.3-6-15.2-13.5c-1-8.2,3.5-15.4,11.2-17.7c1.3-0.4,2.7-0.6,4-0.6
		c16.3,0,32.7-0.1,49,0c7.8,0.1,14.2,6,15.2,13.4c1,8.3-3.7,15.8-11.5,17.7c-2.7,0.7-5.7,0.5-8.5,0.6
		C292.6,175.9,286.1,175.9,279.6,175.8C279.6,175.9,279.6,175.9,279.6,175.8z"/>
	<path d="M175.6,280.2c0,7.7,0.1,15.5,0,23.2c-0.1,9.7-6.9,16.6-16.1,16.5c-9-0.1-15.6-6.9-15.7-16.5c-0.1-15.6-0.1-31.2,0-46.9
		c0.1-9.6,6.7-16.4,15.7-16.5c9.2-0.1,15.9,6.7,16.1,16.5c0,0.2,0,0.5,0,0.7C175.6,264.9,175.6,272.5,175.6,280.2z"/>
	<path d="M263.2,277.7c-6.1,0-9.9-1.6-13.1-4.7c-11.3-11-22.6-21.9-33.7-33c-6.5-6.5-6.4-16.3-0.3-22.6c6.2-6.3,16-6.5,22.5-0.1
		c11.5,11.3,22.9,22.7,34.1,34.2c4.9,5,5.8,11.2,3,17.7C273,275.4,267.9,277.6,263.2,277.7z"/>
</g>
</svg>
