<?xml version="1.0" encoding="utf-8"?>
<!-- Generator: Adobe Illustrator 24.1.2, SVG Export Plug-In . SVG Version: 6.00 Build 0)  -->
<svg version="1.1" id="Layer_1" xmlns="http://www.w3.org/2000/svg" xmlns:xlink="http://www.w3.org/1999/xlink" x="0px" y="0px"
	 viewBox="0 0 408.6 408.8" style="enable-background:new 0 0 408.6 408.8;" xml:space="preserve">
<g>
	<path d="M408.6,76.7c-20.9,0-41.7,0-63.1,0c0,9.1,0.1,18,0,26.9c-0.1,8.2-5.3,14.4-13,15.9c-1.7,0.3-3.4,0.3-5.2,0.3
		c-19.8,0-39.6,0-59.5,0c-11.9,0-18.1-6.3-18.1-18.3c0-7.8,0-15.7-0.1-23.5c0-0.2-0.1-0.5-0.3-1.2c-83,0-166,0-249.3,0
		C0,66,0,55.7,0,44.9c83,0,166.1,0,249.7,0c0-4.7,0-9.1,0-13.4c0-3.9,0.2-7.7,0-11.6C249,10,252.9,3.3,262.5,0c23.4,0,46.8,0,70.3,0
		c9.1,3.2,13.4,9.4,12.8,19.1c-0.2,2.9,0,5.8,0,8.8c0,5.5,0,11.1,0,16.8c21.4,0,42.2,0,63.1,0C408.6,55.4,408.6,66,408.6,76.7z
		 M281.9,32.1c0,18.7,0,37.1,0,55.4c10.7,0,21.1,0,31.5,0c0-18.6,0-36.9,0-55.4C302.8,32.1,292.5,32.1,281.9,32.1z"/>
	<path d="M408.6,220.4c-76.4,0-152.7,0-229.1-0.1c-4.6,0-9.3,0-14.4,0c0,1.8,0,3.3,0,4.9c0,7.1,0,14.1,0,21.2
		c-0.1,10.4-6.6,17.1-16.9,17.1c-20.8,0.1-41.5,0.1-62.3,0c-9.9,0-16.5-6.7-16.6-16.6c-0.1-4.4,0-8.8,0-13.2c0-4.3,0-8.5,0-13.2
		c-23.1,0-46,0-69.2,0c0-10.9,0-21.3,0-32c22.9,0,45.7,0,69.2,0c0-1.6,0-2.8,0-4.1c0-8-0.1-16,0-23.9c0.1-9.9,6.7-16.6,16.5-16.7
		c20.9-0.1,41.8-0.1,62.7,0c9.9,0,16.5,6.7,16.6,16.6c0.1,9.2,0,18.3,0,28.1c81.3,0,162.4,0,243.5,0
		C408.6,199.1,408.6,209.7,408.6,220.4z M132.9,175.9c-10.7,0-21.1,0-31.4,0c0,18.7,0,37.1,0,55.4c10.6,0,21,0,31.4,0
		C132.9,212.8,132.9,194.5,132.9,175.9z"/>
	<path d="M408.6,364.9c-21.4,0-42.8,0-64.7,0c0,9.4,0.1,18.5,0,27.7c-0.1,8.2-5.3,14.4-13,15.9c-1.7,0.3-3.4,0.3-5.2,0.3
		c-19.8,0-39.7,0-59.5,0c-11.9,0-18.1-6.3-18.1-18.3c0-8.4,0-16.7,0-25.5c-82.8,0-165.3,0-248.1,0c0-10.8,0-21.1,0-31.8
		c82.5,0,165,0,247.9,0c0.1-1.7,0.2-3,0.2-4.2c0-8-0.1-16,0.1-23.9c0.2-8.8,6.6-15.7,15.3-15.8c21.7-0.2,43.4-0.2,65.1,0
		c8.9,0.1,15.2,7,15.4,16.1c0.1,9,0,18.1,0,27.7c21.7,0,43.2,0,64.7,0C408.6,343.6,408.6,354.2,408.6,364.9z M280.2,376.6
		c10.7,0,21.1,0,31.4,0c0-18.7,0-37.1,0-55.4c-10.6,0-21,0-31.4,0C280.2,339.7,280.2,358,280.2,376.6z"/>
</g>
</svg>
