<?xml version="1.0" encoding="utf-8"?>
<!-- Generator: Adobe Illustrator 24.1.2, SVG Export Plug-In . SVG Version: 6.00 Build 0)  -->
<svg version="1.1" id="Layer_1" xmlns="http://www.w3.org/2000/svg" xmlns:xlink="http://www.w3.org/1999/xlink" x="0px" y="0px"
	 viewBox="0 0 319.7 351.4" style="enable-background:new 0 0 319.7 351.4;" xml:space="preserve">
<g>
	<path d="M107.1,224.3c-7.3,3.9-14.3,8.6-22.1,11.4c-42.6,15.4-87.4-17.8-84.9-63c1.4-25.6,14.2-44.6,37.5-55.1
		c23.5-10.5,46-7.2,66.4,8.6c2.1,1.7,3.4,1.5,5.4,0.1c26.8-18,53.7-35.9,80.6-53.7c2.2-1.5,2.3-3,2.2-5.3
		c-2.3-33.3,22.9-63.2,55.4-67c33.3-3.8,66,18.5,71,54.4c4,28.8-11.6,56-37.9,67.3c-26.5,11.3-56.5,3.8-74.9-18.9
		c-0.4-0.5-0.8-1-1.3-1.7c-1.1,0.7-2.1,1.3-3.1,1.9c-24.7,16.5-49.4,32.9-74.1,49.3c-2,1.4-2.8,2.4-1.9,5c3.8,11.8,3.7,23.8,0,35.7
		c-0.5,1.8-1.1,3,1,4.4c25.9,17.1,51.7,34.4,77.6,51.5c0.1,0.1,0.2,0,0.6,0.1c1.4-1.7,2.8-3.5,4.5-5.2
		c18.2-18.7,40.1-25.4,65.2-17.9c25,7.5,40.3,25,44.6,50.8c6.3,38.6-22.1,72.6-61.1,74.1c-36.9,1.4-67.9-30.4-65.3-67.3
		c0.2-2.7-0.5-4.2-2.7-5.7c-26.5-17.5-53-35.2-79.4-52.8c-1.1-0.8-2.3-1.5-3.4-2.2C106.9,223.7,107,224,107.1,224.3z M64.2,143.7
		c-17.5,0.1-31.9,14.4-32,31.9c0,17.4,14.4,32,31.8,32c17.7,0,32.1-14.4,32.1-32.1C96.2,158.2,81.6,143.6,64.2,143.7z M255.9,95.8
		c17.7,0,31.9-14.2,32-31.8c0.1-17.5-14.3-32-31.8-32c-17.8,0-32.1,14.2-32.2,32C223.9,81.4,238.3,95.8,255.9,95.8z M255.8,255.6
		c-17.6,0.1-31.9,14.3-31.9,31.9c0,17.5,14.4,31.9,31.9,31.9c17.7,0,32.1-14.4,32.1-32.1C287.9,269.8,273.4,255.6,255.8,255.6z"/>
</g>
</svg>
