<?xml version="1.0" encoding="utf-8"?>
<!-- Generator: Adobe Illustrator 24.1.2, SVG Export Plug-In . SVG Version: 6.00 Build 0)  -->
<svg version="1.1" id="Layer_1" xmlns="http://www.w3.org/2000/svg" xmlns:xlink="http://www.w3.org/1999/xlink" x="0px" y="0px"
	 viewBox="0 0 254.7 383.3" style="enable-background:new 0 0 254.7 383.3;" xml:space="preserve">
<g>
	<path d="M83.7,383.3c-8.1-4.1-9.8-7.8-7.6-16.6c12.1-48.7,24.2-97.4,36.3-146.1c0.3-1.2,0.5-2.4,0.9-4.1c-1.9,0-3.3,0-4.8,0
		c-31.7,0-63.5-0.3-95.2,0.2c-9.4,0.1-16.2-7.2-12.1-17.8C26,135.8,50.3,72.6,74.8,9.4C77.7,2.1,80.7,0,88.7,0c33,0,66,0,99,0
		c10.9,0,15.9,7.5,11.5,17.5c-13.9,31.5-27.8,62.9-41.7,94.4c-0.6,1.4-1.2,2.9-2,4.8c1.9,0,3.2,0,4.6,0c27.4,0,54.7,0,82.1,0
		c6.1,0,10,2.5,11.8,7.3c1.6,4.3,0.2,8-2.1,11.6c-17.4,26.9-34.7,53.9-52,80.8c-34.1,53-68.2,105.9-102.2,158.9
		c-2.2,3.5-4.8,6.3-8.6,7.9C87.2,383.3,85.5,383.3,83.7,383.3z M114.3,306.2c0.3,0.1,0.5,0.3,0.8,0.4
		c35.8-55.6,71.6-111.2,107.7-167.4c-2.1,0-3.4,0-4.7,0c-25.7,0-51.5,0-77.2,0c-11.9,0-16.8-7.4-12-18.3
		c12.8-29.1,25.7-58.1,38.5-87.2c1.6-3.6,3.1-7.2,4.8-11.1c-0.9-0.1-1.3-0.2-1.8-0.2c-24.6,0-49.2,0-73.9-0.1c-2.8,0-3.2,1.5-4,3.4
		C72.1,78.6,51.7,131.4,31.2,184.3c-1.2,3.1-2.4,6.2-3.7,9.7c2,0,3.5,0,5,0c31.1,0,62.2,0,93.3,0c10.1,0,15,6.1,12.6,15.8
		c-4.5,18.4-9.2,36.7-13.7,55.1C121.2,278.6,117.8,292.4,114.3,306.2z"/>
</g>
</svg>
