<?xml version="1.0" standalone="no"?>
<!DOCTYPE svg PUBLIC "-//W3C//DTD SVG 20010904//EN"
 "http://www.w3.org/TR/2001/REC-SVG-20010904/DTD/svg10.dtd">
<svg version="1.0" xmlns="http://www.w3.org/2000/svg"
 width="512.000000pt" height="512.000000pt" viewBox="0 0 512.000000 512.000000"
 preserveAspectRatio="xMidYMid meet">

<g transform="translate(0.000000,512.000000) scale(0.100000,-0.100000)"
 stroke="none">
<path d="M2155 5106 c-84 -21 -147 -57 -211 -121 -99 -98 -134 -197 -134 -375
l0 -100 -395 0 c-256 0 -413 -4 -447 -11 -172 -37 -311 -176 -347 -347 -6 -29
-11 -136 -11 -238 0 -165 2 -189 20 -224 31 -61 78 -80 194 -80 l95 0 5 -42
c4 -24 65 -752 136 -1618 72 -866 135 -1593 141 -1615 28 -105 117 -218 219
-278 100 -58 75 -57 1140 -57 1071 0 1037 -2 1145 60 97 55 186 170 214 275 5
22 69 749 141 1615 71 866 132 1594 136 1618 l5 42 95 0 c116 0 163 19 194 80
18 35 20 59 20 224 0 102 -5 209 -11 238 -37 172 -176 311 -347 347 -34 7
-196 11 -447 11 l-395 0 0 100 c0 177 -36 276 -135 376 -65 65 -136 105 -223
123 -76 16 -731 13 -797 -3z m775 -306 c61 -31 80 -78 80 -195 l0 -95 -450 0
-450 0 0 98 c1 114 16 152 76 188 39 24 40 24 372 24 314 0 335 -1 372 -20z
m1200 -610 c60 -31 80 -78 80 -190 l0 -90 -1650 0 -1650 0 0 93 c1 109 17 147
76 183 l39 24 1533 0 c1517 0 1533 0 1572 -20z m-237 -622 c-2 -24 -62 -744
-133 -1601 -140 -1688 -129 -1593 -193 -1641 l-28 -21 -979 0 -979 0 -28 21
c-64 48 -53 -46 -193 1640 -71 858 -131 1578 -133 1602 l-5 42 1338 0 1338 0
-5 -42z"/>
<path d="M1888 3289 c-23 -12 -46 -35 -58 -59 -20 -39 -20 -57 -20 -1275 0
-1219 0 -1236 20 -1275 23 -45 80 -80 130 -80 50 0 107 35 130 80 20 39 20 56
20 1275 0 1219 0 1236 -20 1275 -37 73 -127 99 -202 59z"/>
<path d="M2488 3289 c-23 -12 -46 -35 -58 -59 -20 -39 -20 -57 -20 -1275 0
-1219 0 -1236 20 -1275 23 -45 80 -80 130 -80 50 0 107 35 130 80 20 39 20 56
20 1275 0 1219 0 1236 -20 1275 -37 73 -127 99 -202 59z"/>
<path d="M3088 3289 c-23 -12 -46 -35 -58 -59 -20 -39 -20 -57 -20 -1275 0
-1219 0 -1236 20 -1275 23 -45 80 -80 130 -80 50 0 107 35 130 80 20 39 20 56
20 1275 0 1219 0 1236 -20 1275 -37 73 -127 99 -202 59z"/>
</g>
</svg>
