<?xml version="1.0" encoding="utf-8"?>
<!-- Generator: Adobe Illustrator 24.1.2, SVG Export Plug-In . SVG Version: 6.00 Build 0)  -->
<svg version="1.1" id="Layer_1" xmlns="http://www.w3.org/2000/svg" xmlns:xlink="http://www.w3.org/1999/xlink" x="0px" y="0px"
	 viewBox="0 0 383.3 383.4" style="enable-background:new 0 0 383.3 383.4;" xml:space="preserve">
<g>
	<path d="M194.6,383.4c-61.6,0-123.3,0-184.9,0c-5.9-2.6-9.8-6.6-9.8-13.5c0-59.1,0-118.3,0-177.4c0-8.1,5.3-13.3,13.3-13.4
		c3.9,0,7.9,0,12.2,0c0-1.9,0-3.4,0-4.9c0-52.7,0-105.3,0-158c0-11.6,4.4-16.1,16-16.1c108.5,0,217.1,0,325.6-0.1
		c7.8,0,13.2,2.6,16.2,9.8c0,112.8,0,225.6,0,338.4c-3.1,7.4-8.7,9.8-16.6,9.8c-52.6-0.2-105.1-0.1-157.7-0.1c-1.4,0-2.9,0-4.6,0
		c0,3.5-0.2,6.5,0,9.4C205.1,375.2,201.9,380.5,194.6,383.4z M357.6,25.8c-102.2,0-204.2,0-306.3,0c0,51.1,0,101.9,0,153.2
		c1.6,0,3.1,0,4.6,0c44.4,0,88.8,0,133.2,0c10.8,0,15.4,4.6,15.4,15.5c0,44.4,0,88.8,0,133.2c0,1.4,0,2.9,0,4.4
		c51.4,0,102.2,0,153.2,0C357.6,230,357.6,128.1,357.6,25.8z M25.8,204.7c0,51.3,0,102.1,0,152.9c51.1,0,102,0,152.9,0
		c0-51.1,0-102,0-152.9C127.6,204.7,76.8,204.7,25.8,204.7z"/>
	<path d="M305.3,95.2c-0.8,1.1-1.4,2.4-2.4,3.3c-20.9,20.9-41.8,41.8-62.7,62.8c-3.9,3.9-8.2,6-13.8,4.4
		c-8.6-2.5-12.1-12.7-6.6-19.9c1-1.3,2.2-2.4,3.3-3.6c20.6-20.7,41.3-41.3,61.9-61.9c0.9-0.9,2.4-1.3,3.6-2c-0.4-0.5-0.8-1-1.1-1.5
		c-1.2-0.1-2.4-0.2-3.6-0.2c-9.4,0-18.7,0.1-28.1,0c-7.6-0.1-13-5.5-13.1-12.5c-0.1-7,5.4-12.9,12.8-12.9c25.1-0.1,50.1,0,75.2,0
		c0.3,0,0.7,0.2,1.3,0.4c0.1,1,0.2,2.1,0.2,3.2c0,23.8,0,47.7,0,71.5c0,6.9-3,11.7-8.5,13.6c-8.3,3-16.8-2.8-17-11.8
		c-0.2-9.5-0.1-19-0.1-28.4c0-1.2,0-2.4,0-3.6C306.2,95.7,305.8,95.4,305.3,95.2z"/>
</g>
</svg>
